<svg xmlns="http://www.w3.org/2000/svg" width="41.507" height="41505.26" viewBox="0 0 170 170" shape-rendering="geometricPrecision" text-rendering="geometricPrecision" image-rendering="optimizeQuality" fill-rule="evenodd" clip-rule="evenodd"><defs><style>.fil0{fill:#f0513d}</style></defs><path class="fil0" d="M134 50l-6 6 25 25-64-1 1-63 24 24 6-6L85 0 50 36l6 6 25-25-1 63H17l24-24-6-6L0 85l36 35 6-6-25-25h63v64l-24-24-6 6 35 35 35-36-6-6-25 25V89l64 1-24 24 6 6 35-35z" id="Слой_x0020_1"/></svg>