<svg xmlns="http://www.w3.org/2000/svg" width="55.408" height="69.959" viewBox="0 0 293 370" shape-rendering="geometricPrecision" text-rendering="geometricPrecision" image-rendering="optimizeQuality" fill-rule="evenodd" clip-rule="evenodd"><defs><style>.fil0{fill:#f0513d}</style></defs><g id="Слой_x0020_1"><path class="fil0" d="M209 95c-18-18-41-26-66-26-48 2-86 43-86 90-1 21 7 42 20 58 20 23 31 53 31 83 0 0-2 14 7 14h63c10 0 8-14 8-14 0-29 10-59 31-85 13-16 20-35 20-56 0-24-10-47-28-64zm-4 111c-23 28-35 60-35 92h-47c0-33-12-65-34-91-11-13-17-30-17-48 0-39 32-72 72-74 20-1 39 7 54 21s23 33 23 53c0 17-6 33-16 47zm45-163c-3-3-8-3-11 0l-19 19c-3 3-3 8 0 11s8 3 11 0l19-19c3-3 3-8 0-11zm-72 282h-63c-4 0-8 3-8 8 0 4 4 8 8 8h63c4 0 8-4 8-8 0-5-4-8-8-8zm-12 29h-39c-4 0-8 4-8 8 0 5 4 8 8 8h39c5 0 8-3 8-8 0-4-4-8-8-8zM147 43c4 0 7-4 7-8V8c0-5-3-8-7-8-5 0-8 4-8 8v27c0 4 3 8 8 8zM73 73c3-3 3-8 0-11L54 43c-3-3-8-3-11 0s-3 8 0 11l19 19c3 3 8 3 11 0zm212 66h-27c-4 0-8 3-8 8 0 4 4 7 8 7h27c5 0 8-3 8-7 0-5-3-8-8-8zm-250 0H8c-5 0-8 3-8 8 0 4 4 7 8 7h27c4 0 8-3 8-7 0-5-4-8-8-8z" id="_1216587200"/></g></svg>