<svg xmlns="http://www.w3.org/2000/svg" width="48.276" height="48.276" viewBox="0 0 216 216" shape-rendering="geometricPrecision" text-rendering="geometricPrecision" image-rendering="optimizeQuality" fill-rule="evenodd" clip-rule="evenodd"><defs><style>.fil0{fill:#f0513d}</style></defs><g id="Слой_x0020_1"><g id="_1099347200"><path class="fil0" d="M185 185c20-21 31-48 31-77s-11-56-31-76c-21-21-48-32-77-32S52 11 32 32C11 52 0 79 0 108s11 56 32 77c20 20 47 31 76 31h108v-13h-56c9-5 17-11 25-18zM13 108c0-52 43-95 95-95s95 43 95 95-43 95-95 95-95-43-95-95z"/><path class="fil0" d="M108 89c16 0 29-13 29-29s-13-29-29-29-29 13-29 29 13 29 29 29zm0-44c9 0 16 7 16 15 0 9-7 16-16 16-8 0-15-7-15-16 0-8 7-15 15-15zm-19 63c0-16-13-29-29-29s-29 13-29 29 13 29 29 29 29-13 29-29zm-29 16c-8 0-15-7-15-16 0-8 7-15 15-15 9 0 16 7 16 15 0 9-7 16-16 16zm48 3c-16 0-29 13-29 29s13 29 29 29 29-13 29-29-13-29-29-29zm0 45c-8 0-15-7-15-16s7-16 15-16c9 0 16 7 16 16s-7 16-16 16zm77-64c0-16-13-29-29-29s-29 13-29 29 13 29 29 29 29-13 29-29zm-29 16c-9 0-16-7-16-16 0-8 7-15 16-15s16 7 16 15c0 9-7 16-16 16z"/></g></g></svg>