<svg xmlns="http://www.w3.org/2000/svg" width="43.71" height="49.085" viewBox="0 0 417 468" shape-rendering="geometricPrecision" text-rendering="geometricPrecision" image-rendering="optimizeQuality" fill-rule="evenodd" clip-rule="evenodd"><defs><style>.fil0{fill:#f0513d}</style></defs><path class="fil0" d="M414 2c-2-2-5-2-7-2L170 67c-3 1-5 4-5 8v292c-4-4-8-7-12-11-17-11-39-18-63-18s-46 7-63 18c-17 13-27 29-27 47s10 34 27 47c17 11 39 18 63 18s46-7 63-18c17-13 27-29 27-47V200l201-57c4-1 7-5 6-9-2-4-6-7-10-6l-197 56v-24l201-57c4-1 7-5 6-9-2-4-6-7-10-5l-197 56V80l222-63v279c-4-3-8-7-13-10-17-12-39-19-62-19-24 0-46 7-63 19-18 12-27 28-27 46s9 35 27 47c17 12 39 18 63 18 23 0 45-6 62-18 18-12 28-29 28-47V7c0-2-1-4-3-5zM144 437c-14 10-34 16-54 16-21 0-40-6-54-16-14-9-21-21-21-34s7-25 21-34c14-10 33-16 54-16 20 0 40 6 54 16 14 9 21 21 21 34s-7 25-21 34zm237-70c-15 10-34 15-54 15-21 0-40-5-54-15s-21-22-21-35c0-12 7-25 21-34 14-10 33-16 54-16 20 0 39 6 54 16 13 9 21 22 21 34 0 13-8 25-21 35z" id="Слой_x0020_1"/></svg>