<svg xmlns="http://www.w3.org/2000/svg" width="49164.85" height="49164.85" viewBox="0 0 233 233" shape-rendering="geometricPrecision" text-rendering="geometricPrecision" image-rendering="optimizeQuality" fill-rule="evenodd" clip-rule="evenodd"><defs><style>.fil0{fill:#f0513d}</style></defs><path class="fil0" d="M199 34c-22-22-51-34-83-34-31 0-60 12-82 34S0 85 0 116c0 32 12 61 34 83s51 34 82 34c32 0 61-12 83-34s34-51 34-83c0-31-12-60-34-82zm23 77h-45c0-18-3-35-7-50 8-5 16-10 24-17 16 18 27 41 28 67zm-100 11h45c-1 16-3 32-7 46-12-5-25-8-38-8v-38zm64-85c-6 5-12 10-19 14-2-6-4-10-7-15-4-9-9-16-15-22 16 5 30 12 41 23zm-64-25c11 2 21 13 29 29 2 4 4 9 6 14-11 5-23 7-35 8V12zm38 53c4 14 6 30 7 46h-45V73c13 0 26-3 38-8zm-49 46H66c0-16 3-32 7-46 12 5 25 8 38 8v38zm0-99v51c-12-1-24-3-35-8 2-5 4-10 6-14 8-16 18-27 29-29zm-23 2c-6 6-11 13-15 22-3 5-5 9-7 15-7-4-13-9-19-14 11-11 25-18 41-23zM39 44c7 7 16 12 24 17-4 15-7 32-7 50H11c1-26 11-49 28-67zm-28 78h45c0 18 3 35 7 51-8 4-16 9-24 16-16-18-27-41-28-67zm36 74c6-5 13-10 19-13 2 5 4 9 7 14 4 9 9 16 15 22-16-5-29-12-41-23zm64 25c-11-3-21-13-29-29-2-4-4-9-6-14 11-4 23-7 35-8v51zm-38-53c-4-14-6-30-7-46h45v38c-13 0-26 3-38 8zm49 53v-51c12 1 24 4 35 8-2 5-4 10-6 14-8 16-18 26-29 29zm23-3c6-5 11-12 15-21 3-5 5-10 6-14 7 3 14 8 20 13-12 11-26 18-41 22zm49-29c-8-6-16-12-24-16 4-16 7-33 7-51h45c-1 26-12 49-28 67z" id="Слой_x0020_1"/></svg>