<svg xmlns="http://www.w3.org/2000/svg" width="8.75mm" height="42.172" viewBox="0 0 401 511" shape-rendering="geometricPrecision" text-rendering="geometricPrecision" image-rendering="optimizeQuality" fill-rule="evenodd" clip-rule="evenodd"><defs><style>.fil0{fill:#f0513d}</style></defs><g id="Слой_x0020_1"><g id="_1216562976"><path class="fil0" d="M319 36c-1 0-2 0-4 1-2-11-6-21-12-31-3-5-7-7-12-6H110c-5-1-10 1-13 6-5 10-9 20-12 31-1-1-2-1-4-1-28-3-68-2-79 31-1 4-2 9-2 13v2c0 25 17 52 28 71 19 35 43 67 62 102 11 21 26 51-9 53-14 0-14 23 0 22 40-1 48-23 42-49 12 28 26 56 43 80 5 10 11 20 18 29-8 16-14 33-17 50-27 0-56 10-57 37 0 5 2 10 7 15 18 19 74 19 76 19h18c2 0 58 0 76-19 5-5 7-10 6-15-1-27-29-37-56-37h-2l-1 1c-2-20-8-38-17-55 6-9 12-18 19-26 1-1 2-3 3-5 15-23 28-49 39-76-6 27 1 50 41 51 15 1 15-22 0-22-34-2-19-32-8-53 19-35 42-67 62-102 13-23 35-58 26-86-11-33-51-34-80-31zM82 197c-20-32-44-64-56-100-12-39 24-41 55-39-6 41 2 84 10 122 5 21 11 43 18 64-9-18-20-35-27-47zm149 270h6c13 0 25 3 28 7 1 1 2 1 2 2-2 3-16 8-51 8h-28c-35 0-50-5-51-7 0-2 1-2 2-3 3-4 13-6 26-7 3 12 23 10 24-4 1-19 5-36 13-53 6 15 9 31 8 48 0 13 14 15 21 9zm-15-123c-2 1-3 2-5 3-3 1-7 1-10 1h-6c-4-1-7-2-10-4-1-1-2-2-2-3-29-43-48-93-62-143-15-52-30-122-6-174h170c24 52 10 122-5 174-15 51-34 102-64 146zM374 97c-11 36-35 68-55 100-7 12-19 30-28 48 8-21 14-43 18-65 9-38 16-81 11-122 30-2 67-1 54 39z"/><path class="fil0" d="M276 45c-1-7-8-9-14-7-1-1-2-1-4-1h-33c-14 0-14 23 0 23h30c5 36 3 71-7 106-3 15 19 21 22 6 12-42 13-84 6-127z"/></g></g></svg>